<svg width="16" height="16" viewBox="0 0 16 16" fill="none" xmlns="http://www.w3.org/2000/svg">
<path d="M2.66699 13.0007V3.00065C2.66699 2.55862 2.84259 2.1347 3.15515 1.82214C3.46771 1.50958 3.89163 1.33398 4.33366 1.33398H12.667C12.8438 1.33398 13.0134 1.40422 13.1384 1.52925C13.2634 1.65427 13.3337 1.82384 13.3337 2.00065V14.0007C13.3337 14.1775 13.2634 14.347 13.1384 14.4721C13.0134 14.5971 12.8438 14.6673 12.667 14.6673H4.33366C3.89163 14.6673 3.46771 14.4917 3.15515 14.1792C2.84259 13.8666 2.66699 13.4427 2.66699 13.0007ZM2.66699 13.0007C2.66699 12.5586 2.84259 12.1347 3.15515 11.8221C3.46771 11.5096 3.89163 11.334 4.33366 11.334H13.3337M6.00033 6.33398L7.33366 7.66732L10.0003 5.00065" stroke="white" stroke-linecap="round" stroke-linejoin="round"/>
</svg>
