<svg width="16" height="16" viewBox="0 0 16 16" fill="none" xmlns="http://www.w3.org/2000/svg">
<path d="M1.79929 6.8671C1.64992 7.01632 1.53143 7.19351 1.45058 7.38854C1.36974 7.58358 1.32813 7.79264 1.32812 8.00377C1.32813 8.2149 1.36974 8.42396 1.45058 8.61899C1.53143 8.81403 1.64992 8.99122 1.79929 9.14044L6.85929 14.2004C7.0085 14.3498 7.18569 14.4683 7.38073 14.5491C7.57577 14.63 7.78483 14.6716 7.99596 14.6716C8.20708 14.6716 8.41614 14.63 8.61118 14.5491C8.80622 14.4683 8.98341 14.3498 9.13262 14.2004L14.1926 9.14044C14.342 8.99122 14.4605 8.81403 14.5413 8.61899C14.6222 8.42396 14.6638 8.2149 14.6638 8.00377C14.6638 7.79264 14.6222 7.58358 14.5413 7.38854C14.4605 7.19351 14.342 7.01632 14.1926 6.8671L9.13262 1.8071C8.98341 1.65773 8.80622 1.53924 8.61118 1.4584C8.41614 1.37755 8.20708 1.33594 7.99596 1.33594C7.78483 1.33594 7.57577 1.37755 7.38073 1.4584C7.18569 1.53924 7.0085 1.65773 6.85929 1.8071L1.79929 6.8671Z" stroke="#8C8C8C" stroke-linecap="round" stroke-linejoin="round"/>
</svg>
